---
title: trigger chains
config:
  layout: elk
  look: classic
  theme: forest
---
stateDiagram
direction LR

%% layouts: dagre,elk
%% looks: classic,handDrawn
%% themes: default,neutral,dark,forest,base

%% todo: on_damage_dealt procs shoud be on_hit instead?

%% pedantic name: display name
combat_start: as combat begins
damage_dealt: deal damage
dodge_hit: dodge a hit
frost_enemy: apply frost
heal_self: heal yourself
innerfire_self: gain innerfire
lethal_damage_taken: cheat death
magic_damage_taken: take magic damage
mana: gain mana
mech_destroyed_self: your drone dies
normal_attack_hit: land a normal attack
physical_damage_taken: take physical damage
shield_self: gain shield
toxin_damage_taken: take poison damage
toxin_enemy: apply poison
true_damage_taken: take true damage
ultimate_cast: cast your ultimate
ultimate_hit: land your ultimate
vulnerable_enemy: apply vulnerable

time --> mana
physical_damage_taken --> mana
magic_damage_taken --> mana
toxin_damage_taken --> mana
true_damage_taken --> mana
mana --> ultimate_cast
time --> normal_attack_hit
normal_attack_hit --> damage_dealt
damage_dealt --> crit

time --> damage_dealt: wind missile (weaponry)
normal_attack_hit --> heal_self: spear of healing (weaponry,heal)
normal_attack_hit --> shield_self: fierce counter (weaponrymech_destroyed_selfweaponry,vulnerable)
normal_attack_hit --> frost_enemy: iceblade storm (weaponry,frost)
normal_attack_hit --> toxin_enemy: poison claw (weaponry,toxin)

combat_start --> ultimate_cast: arcane storm (spell)
damage_dealt --> mana: magic mark (spell)
ultimate_cast --> mana: magic surge (spell)
ultimate_cast --> heal_self: heal spring (spell,heal)
ultimate_cast --> shield_self: mana shield (spell,shield)
ultimate_cast --> innerfire_self: holifire tattoo (spell,innerfire)
ultimate_cast --> vulnerable_enemy: spell sharpness (spell,vulnerable)
ultimate_cast --> frost_enemy: frost magic ball (spell,frost)
ultimate_cast --> toxin_enemy: toxin magic ball (spell,toxin)

time --> dodge_hit: enemy attacks
dodge_hit --> damage_dealt: phantom dance (evasion)
dodge_hit --> damage_dealt: wheel of fate (evasion)
dodge_hit --> damage_dealt: light of chance (evasion,crit)
dodge_hit --> heal_self: eternal rebirth (evasion,heal)
dodge_hit --> innerfire_self: frenzied smoke (evasion,innerfire)
dodge_hit --> vulnerable_enemy: curse eye (evasion,vulnerable)
dodge_hit --> frost_enemy: frost trap (evasion,frost)
dodge_hit --> toxin_enemy: venom spray (evasion,toxin)

combat_start --> damage_dealt: sky splitter slash (crit)
crit --> damage_dealt: light of chance (crit,evasion)
crit --> heal_self: life tide (crit,heal)
crit --> shield_self: unbreakable (crit,shield)
crit --> innerfire_self: blood rage (crit,innerfire)
crit --> vulnerable_enemy: fatal strike (crit,vulnerable)
crit --> frost_enemy: crystal shard (crit,frost)
crit --> toxin_enemy: bad infection (crit,toxin)

time --> damage_dealt: rebirth flame (health)
time --> shield_self: undying body (health,shield)
time --> innerfire_self: undying phoenix (health,innerfire)
time --> vulnerable_enemy: crushing force (health,vulnerable)
time --> frost_enemy: frost giant (health,frost)
time --> toxin_enemy: corruption breath (health,toxin)

time --> damage_dealt: drone's laser (mech)
time --> damage_dealt: drone's attack (mech)
time --> heal_self: aerial resupply (mech,heal)
time --> shield_self: robust parts (mech,shield)
time --> innerfire_self: ion spark (mech,innerfire)
time --> vulnerable_enemy: system shutdown (mech,vulnerable)
time --> frost_enemy: magnetic cooling (mech,frost)
time --> toxin_enemy: virus code (mech,toxin)
mech_destroyed_self --> damage_dealt: self destruct (mech)

lethal_damage_taken --> heal_self: adrenaline (heal)
damage_dealt --> heal_self: revival breath (heal)
time --> heal_self: healing touch (heal)
time --> damage_dealt: life flower (heal)
heal_self --> damage_dealt: healing lightspear (heal)
heal_self --> innerfire_self: desperate plea (heal,innerfire)
heal_self --> vulnerable_enemy: bloody curse (heal,vulnerable)
heal_self --> frost_enemy: crystal blood (heal,frost)
heal_self --> toxin_enemy: plague source (heal,toxin)

combat_start --> shield_self: preemptive shield (shield)
lethal_damage_taken --> shield_self: solid miracle (shield)
time --> shield_self: shield surge (shield)
time --> damage_dealt: damage reflection (shield,vulnerable)
shield_self --> damage_dealt: flying shield (shield)
shield_self --> frost_enemy: ice barrier (shield,frost)
shield_self --> toxin_enemy: poison armor (shield,toxin)

combat_start --> innerfire_self: boiling tar (innerfire)
physical_damage_taken --> innerfire_self: arrogant aura (innerfire)
magic_damage_taken --> innerfire_self: arrogant aura (innerfire)
toxin_damage_taken --> innerfire_self: arrogant aura (innerfire)
true_damage_taken --> innerfire_self: arrogant aura (innerfire)
time --> innerfire_self: flame surge (innerfire)
time --> damage_dealt: frostfire storm (innerfire,frost)
time --> damage_dealt: the judgement day (innerfire)
innerfire_self --> damage_dealt: soul offering (innerfire)

combat_start --> vulnerable_enemy: preemptive pain (vulnerable)
time --> vulnerable_enemy: curse surge (vulnerable)
time --> vulnerable_enemy: curse formation (vulnerable)
time --> vulnerable_enemy: death erosion (vulnerable)
time --> damage_dealt: death erosion (vulnerable)
time --> damage_dealt: damage reflection (vulnerable,shield)
vulnerable_enemy --> frost_enemy: cold wound (vulnerable,frost)
vulnerable_enemy --> toxin_enemy: death touch (vulnerable,toxin)

combat_start --> frost_enemy: preemptive frost (frost)
physical_damage_taken --> frost_enemy: frost counter (frost)
magic_damage_taken --> frost_enemy: frost counter (frost)
toxin_damage_taken --> frost_enemy: frost counter (frost)
true_damage_taken --> frost_enemy: frost counter (frost)
time --> frost_enemy: frozen touch (frost)
time --> damage_dealt: avalanche (frost)
time --> damage_dealt: frostfire storm (frost,innerfire)
frost_enemy --> damage_dealt: crystal blade (frost)

combat_start --> toxin_enemy: preemptive poison (toxin)
time --> toxin_enemy: poison surge (toxin)
time --> damage_dealt: poison settles (toxin)
physical_damage_taken --> toxin_enemy: toxin backlash (toxin)
magic_damage_taken --> toxin_enemy: toxin backlash (toxin)
toxin_damage_taken --> toxin_enemy: toxin backlash (toxin)
true_damage_taken --> toxin_enemy: toxin backlash (toxin)
damage_dealt --> toxin_enemy: plague infection (toxin)
